<svg width="37" height="37" viewBox="0 0 37 37" fill="none" xmlns="http://www.w3.org/2000/svg">
<path d="M35.9664 24.5921C37.3445 20.6446 37.3445 16.3463 35.9664 12.3988L35.9119 12.2537C34.6244 8.66596 32.2608 5.56352 29.1443 3.37028C26.0278 1.17704 22.3104 0 18.5 0C14.6896 0 10.9722 1.17704 7.85568 3.37028C4.73917 5.56352 2.37564 8.66596 1.08805 12.2537L1.03364 12.3988C-0.344546 16.3463 -0.344546 20.6446 1.03364 24.5921L1.08805 24.7373C2.37377 28.3256 4.73569 31.4293 7.85105 33.6242C10.9664 35.819 14.6832 36.998 18.4936 37C22.304 37.002 26.0221 35.8269 29.1397 33.6353C32.2573 31.4436 34.6225 28.3424 35.9119 24.7554L35.9664 24.5921ZM13.3671 25.3905H23.6329C22.5991 28.711 20.8397 31.6867 18.5 33.973C16.1603 31.6867 14.4009 28.711 13.3671 25.3905ZM12.823 23.2131C12.1698 20.1019 12.1698 16.889 12.823 13.7778H24.177C24.8302 16.889 24.8302 20.1019 24.177 23.2131H12.823ZM2.1763 18.4955C2.17252 16.8975 2.40476 15.3078 2.86552 13.7778H10.5921C10.0115 16.8961 10.0115 20.0948 10.5921 23.2131H2.86552C2.40476 21.6831 2.17252 20.0934 2.1763 18.4955ZM23.6329 11.6004H13.3671C14.4009 8.27994 16.1603 5.3042 18.5 3.01795C20.8397 5.3042 22.5991 8.27994 23.6329 11.6004ZM26.4261 13.7778H34.1345C35.0539 16.8557 35.0539 20.1353 34.1345 23.2131H26.4261C26.9823 20.0926 26.9823 16.8983 26.4261 13.7778ZM33.3002 11.6004H25.9182C24.9882 8.15826 23.2538 4.98649 20.8579 2.3466C23.5355 2.73789 26.0741 3.78826 28.2458 5.40342C30.4175 7.01859 32.1542 9.14798 33.3002 11.6004ZM16.1421 2.3466C13.7462 4.98649 12.0118 8.15826 11.0818 11.6004H3.69984C4.84576 9.14798 6.58251 7.01859 8.75419 5.40342C10.9259 3.78826 13.4645 2.73789 16.1421 2.3466ZM3.69984 25.3905H11.0818C12.0156 28.8365 13.7494 32.0133 16.1421 34.6625C13.4648 34.2632 10.9277 33.2076 8.75684 31.5899C6.58599 29.9722 4.84874 27.8425 3.69984 25.3905ZM20.8579 34.6625C23.2506 32.0133 24.9844 28.8365 25.9182 25.3905H33.3002C32.1513 27.8425 30.414 29.9722 28.2432 31.5899C26.0723 33.2076 23.5352 34.2632 20.8579 34.6625Z" fill="white"/>
</svg>
