<svg width="21" height="21" viewBox="0 0 21 21" fill="none" xmlns="http://www.w3.org/2000/svg">
<path d="M11.6667 5.83333V1.16667C11.6667 0.836115 11.7787 0.558837 12.0027 0.334837C12.2267 0.110837 12.5036 -0.000773741 12.8333 4.03691e-06H19.8333C20.1639 4.03691e-06 20.4412 0.112004 20.6652 0.336004C20.8892 0.560004 21.0008 0.836893 21 1.16667V5.83333C21 6.16389 20.888 6.44117 20.664 6.66517C20.44 6.88917 20.1631 7.00078 19.8333 7H12.8333C12.5028 7 12.2255 6.888 12.0015 6.664C11.7775 6.44 11.6659 6.16311 11.6667 5.83333ZM4.03691e-06 10.5V1.16667C4.03691e-06 0.836115 0.112004 0.558837 0.336004 0.334837C0.560004 0.110837 0.836893 -0.000773741 1.16667 4.03691e-06H8.16667C8.49722 4.03691e-06 8.7745 0.112004 8.9985 0.336004C9.2225 0.560004 9.33411 0.836893 9.33333 1.16667V10.5C9.33333 10.8306 9.22133 11.1078 8.99733 11.3318C8.77333 11.5558 8.49644 11.6674 8.16667 11.6667H1.16667C0.836115 11.6667 0.558837 11.5547 0.334837 11.3307C0.110837 11.1067 -0.000773741 10.8298 4.03691e-06 10.5ZM11.6667 19.8333V10.5C11.6667 10.1694 11.7787 9.89217 12.0027 9.66817C12.2267 9.44417 12.5036 9.33256 12.8333 9.33333H19.8333C20.1639 9.33333 20.4412 9.44533 20.6652 9.66933C20.8892 9.89333 21.0008 10.1702 21 10.5V19.8333C21 20.1639 20.888 20.4412 20.664 20.6652C20.44 20.8892 20.1631 21.0008 19.8333 21H12.8333C12.5028 21 12.2255 20.888 12.0015 20.664C11.7775 20.44 11.6659 20.1631 11.6667 19.8333ZM4.03691e-06 19.8333V15.1667C4.03691e-06 14.8361 0.112004 14.5588 0.336004 14.3348C0.560004 14.1108 0.836893 13.9992 1.16667 14H8.16667C8.49722 14 8.7745 14.112 8.9985 14.336C9.2225 14.56 9.33411 14.8369 9.33333 15.1667V19.8333C9.33333 20.1639 9.22133 20.4412 8.99733 20.6652C8.77333 20.8892 8.49644 21.0008 8.16667 21H1.16667C0.836115 21 0.558837 20.888 0.334837 20.664C0.110837 20.44 -0.000773741 20.1631 4.03691e-06 19.8333Z" fill="#666666"/>
</svg>
