<svg width="23" height="24" viewBox="0 0 23 24" fill="none" xmlns="http://www.w3.org/2000/svg">
<path d="M2.875 24C2.08438 24 1.40731 23.7312 0.843814 23.1936C0.280315 22.656 -0.000955892 22.0105 2.44058e-06 21.2571V8.91428C2.44058e-06 8.48 0.102065 8.06857 0.30619 7.68C0.510315 7.29143 0.791586 6.97143 1.15 6.72L9.775 0.548571C10.0385 0.365714 10.3141 0.228571 10.6016 0.137143C10.8891 0.0457141 11.1885 0 11.5 0C11.8115 0 12.1109 0.0457141 12.3984 0.137143C12.6859 0.228571 12.9615 0.365714 13.225 0.548571L21.85 6.72C22.2094 6.97143 22.4911 7.29143 22.6952 7.68C22.8994 8.06857 23.001 8.48 23 8.91428V21.2571C23 22.0114 22.7182 22.6574 22.1547 23.195C21.5912 23.7326 20.9147 24.0009 20.125 24H14.375V14.4H8.625V24H2.875Z" fill="#666666"/>
</svg>
