<svg width="22" height="25" viewBox="0 0 22 25" fill="none" xmlns="http://www.w3.org/2000/svg">
<path d="M19.5556 2.50023H14.4467C14.1964 1.76953 13.7303 1.13644 13.1128 0.688519C12.4953 0.240601 11.757 0 11 0C10.243 0 9.50465 0.240601 8.88718 0.688519C8.26971 1.13644 7.8036 1.76953 7.55333 2.50023H2.44444C1.79673 2.50221 1.1761 2.76623 0.718098 3.23464C0.260095 3.70305 0.00193444 4.33778 0 5.0002V22.5C0.00193444 23.1625 0.260095 23.7972 0.718098 24.2656C1.1761 24.734 1.79673 24.998 2.44444 25H19.5556C20.2033 24.998 20.8239 24.734 21.2819 24.2656C21.7399 23.7972 21.9981 23.1625 22 22.5V5.0002C21.9981 4.33778 21.7399 3.70305 21.2819 3.23464C20.8239 2.76623 20.2033 2.50221 19.5556 2.50023ZM11 2.50023C11.2417 2.50023 11.478 2.57354 11.679 2.71089C11.88 2.84824 12.0367 3.04346 12.1292 3.27187C12.2217 3.50027 12.2459 3.7516 12.1987 3.99408C12.1516 4.23655 12.0352 4.45928 11.8642 4.63409C11.6933 4.8089 11.4755 4.92795 11.2384 4.97618C11.0014 5.02442 10.7556 4.99966 10.5323 4.90505C10.3089 4.81044 10.1181 4.65023 9.98376 4.44467C9.84946 4.23911 9.77778 3.99744 9.77778 3.75022C9.77874 3.419 9.90782 3.10164 10.1368 2.86743C10.3658 2.63323 10.6761 2.50122 11 2.50023ZM8.55556 8.75016L11.9656 12.2426L15.0456 9.09266L13.4444 7.50018H18.3333V12.5001L16.7738 10.8614L11.968 15.7801L8.55556 12.2876L5.39489 15.5176L3.66667 13.7501L8.55556 8.75016ZM19.5556 21.25H2.44444V18.7501H19.5556V21.25Z" fill="#666666"/>
</svg>
